# xmcd
#
# Track frame offsets:
#	150
#	16949
#	43143
#	62314
#	81258
#	103303
#	127656
#	146025
#	158834
#	175131
#	194979
#	219243
#	239389
#
# Disc length: 3537 seconds
# Revision: 0
# Processed by: cddbd v1.5.2PL0 Copyright (c) Steve Scherf et al.
# Submitted via: dBpowerAMP V12.0
#
DISCID=b30dcf0d
DTITLE=Demon Hunter - True Defiance
DYEAR=2012
DGENRE=Metal
TTITLE0=Crucifix
TTITLE1=God Forsaken
TTITLE2=My Destiny
TTITLE3=Wake
TTITLE4=Tomorrow Never Comes
TTITLE5=Someone to Hate
TTITLE6=This I Know
TTITLE7=Means to an End
TTITLE8=We Don't Care
TTITLE9=Resistance
TTITLE10=Dead Flowers
TTITLE11=What Is Left [Bonus Track]
TTITLE12=I Am a Stone [Bonus Track]
EXTD=
EXTT0=
EXTT1=
EXTT2=
EXTT3=
EXTT4=
EXTT5=
EXTT6=
EXTT7=
EXTT8=
EXTT9=
EXTT10=
EXTT11=
EXTT12=
PLAYORDER=
